<mxfile host="65bd71144e">
    <diagram id="DtmwJ5mVeYVFGNRmjVFp" name="Page-1">
        <mxGraphModel dx="942" dy="632" grid="1" gridSize="10" guides="1" tooltips="1" connect="1" arrows="1" fold="1" page="1" pageScale="1" pageWidth="827" pageHeight="1169" math="0" shadow="0">
            <root>
                <mxCell id="0"/>
                <mxCell id="1" parent="0"/>
                <mxCell id="2" value="rg-demo" style="fontStyle=0;verticalAlign=top;align=center;spacingTop=-2;fillColor=none;rounded=0;whiteSpace=wrap;html=1;strokeColor=#919191;strokeWidth=2;dashed=1;container=1;collapsible=0;expand=0;recursiveResize=0;" vertex="1" parent="1">
                    <mxGeometry x="120" y="110" width="520" height="330" as="geometry"/>
                </mxCell>
                <mxCell id="8" style="edgeStyle=orthogonalEdgeStyle;html=1;" edge="1" parent="2" source="4" target="5">
                    <mxGeometry relative="1" as="geometry"/>
                </mxCell>
                <mxCell id="4" value="vm-demo&lt;br&gt;standard d2&lt;br&gt;windows datacenter 2019&lt;br&gt;" style="aspect=fixed;html=1;points=[];align=center;image;fontSize=12;image=img/lib/azure2/compute/Virtual_Machine.svg;" vertex="1" parent="2">
                    <mxGeometry x="275.5" y="200" width="69" height="64" as="geometry"/>
                </mxCell>
                <mxCell id="10" style="edgeStyle=orthogonalEdgeStyle;html=1;entryX=0.007;entryY=0.45;entryDx=0;entryDy=0;entryPerimeter=0;" edge="1" parent="2" source="5" target="9">
                    <mxGeometry relative="1" as="geometry">
                        <Array as="points">
                            <mxPoint x="200" y="68"/>
                        </Array>
                    </mxGeometry>
                </mxCell>
                <mxCell id="5" value="nic-demo" style="sketch=0;aspect=fixed;html=1;points=[];align=center;image;fontSize=12;image=img/lib/mscae/NetworkInterfaceCard.svg;" vertex="1" parent="2">
                    <mxGeometry x="180" y="140" width="44" height="50" as="geometry"/>
                </mxCell>
                <mxCell id="9" value="vnet-demo" style="aspect=fixed;html=1;points=[];align=center;image;fontSize=12;image=img/lib/azure2/networking/Virtual_Networks.svg;" vertex="1" parent="2">
                    <mxGeometry x="277.5" y="50" width="67" height="40" as="geometry"/>
                </mxCell>
                <mxCell id="12" style="edgeStyle=orthogonalEdgeStyle;html=1;" edge="1" parent="2" source="11" target="5">
                    <mxGeometry relative="1" as="geometry"/>
                </mxCell>
                <mxCell id="11" value="publicip-demo" style="aspect=fixed;html=1;points=[];align=center;image;fontSize=12;image=img/lib/azure2/networking/Public_IP_Addresses.svg;" vertex="1" parent="2">
                    <mxGeometry x="80" y="206" width="65" height="52" as="geometry"/>
                </mxCell>
                <mxCell id="13" value="nsg-demo&lt;br&gt;allow rdp" style="sketch=0;aspect=fixed;html=1;points=[];align=center;image;fontSize=12;image=img/lib/mscae/Network_Security_Groups_Classic.svg;" vertex="1" parent="2">
                    <mxGeometry x="390" y="10" width="37" height="50" as="geometry"/>
                </mxCell>
                <mxCell id="3" value="" style="sketch=0;aspect=fixed;html=1;points=[];align=center;image;fontSize=12;image=img/lib/mscae/ResourceGroup.svg;" vertex="1" parent="1">
                    <mxGeometry x="130" y="90" width="50" height="40" as="geometry"/>
                </mxCell>
            </root>
        </mxGraphModel>
    </diagram>
</mxfile>